<svg xmlns="http://www.w3.org/2000/svg" viewBox="0 0 21 19"><path fill="#1CABE2" d="M3.5 7.3l4.8 5V19h-4v-2.9l-4-5.3c-.2-.2-.3-.5-.3-.8V1.9C0 1.3.5.7 1.2.7c.6 0 1.2.5 1.2 1.2v4.7c-.4 0-.6.2-.8.4-.6.6-.6 1.6 0 2.2l2.2 2.3.2-.3-2.2-2.3c-.4-.5-.4-1.2 0-1.6.2-.2.4-.3.5-.3.2-.1.4-.1.6 0 .2 0 .4.1.6.3m14 0l-4.8 5V19h4v-2.9l4-5.3c.2-.2.3-.4.3-.7V1.9c0-.6-.5-1.2-1.2-1.2-.6 0-1.2.5-1.2 1.2v4.7c.4 0 .6.2.8.4.6.6.6 1.6 0 2.2l-2.2 2.3-.2-.3 2.2-2.3c.4-.5.4-1.2 0-1.6-.2-.2-.4-.3-.5-.3-.2-.1-.4-.1-.6 0-.2 0-.4.1-.6.3m-7 1.8c1.3 0 2.3-.5 3.2-1.3.9-.9 1.3-2 1.3-3.2 0-1.3-.4-2.3-1.3-3.2-.9-.9-2-1.3-3.2-1.3C9.2 0 8.2.4 7.3 1.3c-.9.9-1.3 2-1.3 3.2 0 1.3.4 2.3 1.3 3.2.9 1 1.9 1.4 3.2 1.4"/></svg>