<svg xmlns="http://www.w3.org/2000/svg" viewBox="0 0 21.4 21.6"><path fill="#1CABE2" d="M17.8 9.6l-.2-.7 3.5-.8.2.7-3.5.8zm1.6-5.2l-.4-.6-2.8 2.3.4.5 2.8-2.2zm-3.7-3.2l-.6-.3-1.6 3.3.6.3 1.6-3.3zM11 0h-.7v3.6h.7V0zM7.9 4.2L6.3.9l-.7.3 1.6 3.3.7-.3zM5.2 6.1L2.4 3.8l-.4.6 2.8 2.3.4-.6zM3.7 8.9L.2 8.1l-.2.7 3.5.8.2-.7zm4.8 10.9l4.7-.8v-.7l-4.9.9c0 .2.1.4.2.6m-.3-1l5-.9v-.6l-5 .9v.6zm4.9.6l-4.3.8c.1.2.3.3.5.4v1h2.9v-1c.4-.3.7-.7.9-1.2m3.2-8.5c0-3.1-2.5-5.6-5.6-5.6-3.1 0-5.6 2.5-5.6 5.6 0 2.2 1.3 4.1 3.1 5v1.8l5-.9v-.9c1.8-.9 3.1-2.8 3.1-5"/></svg>