<?xml version="1.0" encoding="UTF-8" standalone="no"?>
<svg width="20px" height="20px" viewBox="0 0 20 20" version="1.1" xmlns="http://www.w3.org/2000/svg" xmlns:xlink="http://www.w3.org/1999/xlink">
    <!-- Generator: Sketch 47.1 (45422) - http://www.bohemiancoding.com/sketch -->
    <title>Combined Shape</title>
    <desc>Created with Sketch.</desc>
    <defs></defs>
    <g id="Symbols" stroke="none" stroke-width="1" fill="none" fill-rule="evenodd">
        <g id="⚪atom/search_icon_close" fill="#404040">
            <path d="M7.25935196,9.79813739 L0.531330065,16.5261593 C-0.167956078,17.2254454 -0.174950679,18.369093 0.526115559,19.0701592 C1.2320695,19.7761132 2.36616936,19.7688908 3.07011549,19.0649447 L9.79813739,12.3369228 L16.5261593,19.0649447 C17.2254454,19.7642308 18.369093,19.7712254 19.0701592,19.0701592 C19.7761132,18.3642053 19.7688908,17.2301054 19.0649447,16.5261593 L12.3369228,9.79813739 L19.0649447,3.07011549 C19.7642308,2.37082935 19.7712254,1.2271818 19.0701592,0.526115559 C18.3642053,-0.179838384 17.2301054,-0.172616065 16.5261593,0.531330065 L9.79813739,7.25935196 L3.07011549,0.531330065 C2.37082935,-0.167956078 1.2271818,-0.174950679 0.526115559,0.526115559 C-0.179838384,1.2320695 -0.172616065,2.36616936 0.531330065,3.07011549 L7.25935196,9.79813739 Z" id="Combined-Shape"></path>
        </g>
    </g>
</svg>