<svg xmlns="http://www.w3.org/2000/svg" viewBox="0 0 22.8 23.7"><path fill="#1CABE2" d="M22.8 16.7L10 10.3V10c0-1 0-4.5-2-6.7.1.1.2.2.2.3 0 0-2.4-3.5-4.7-3.6-1.1-.1-2 .8-2.2 1.1-.2.4-1.4 2.3-1.3 5.1 0 0 0-1.1.6-2.2-1 2.1-.4 3.7.2 4.8.1 1.1.7 1.9 1 2.3.5.8 1.9 1.9 2.4 2.3-.2 1-.7 2.8-.9 4-.2 1.4-.3 5.3-.3 5.3l4.5 1.1s.2-.2.2-.5c0-.1.5-5.4.9-7.5 2.3 1.2 8.1 4.2 8.1 4.2l.4-.6 3.2 1.6 2.5-4.3zM8 3.3l-.1-.1.1.1m-5.9-1c1.1-.7 3.1-.5 3.4-.4.1 0 .5.1.9.3.6 1.2.5 4-.6 6 0 0-4.6-2.1-5.2-4.4.3-.5.8-1 1.5-1.5"/></svg>