<svg xmlns="http://www.w3.org/2000/svg" viewBox="0 0 21.5 23.8"><path fill="#1CABE2" d="M12.8 0C8 0 4.1 3.9 4.1 8.7c0 4.8 3.9 8.7 8.7 8.7 4.8 0 8.7-3.9 8.7-8.7 0-4.8-3.9-8.7-8.7-8.7M9.2 9.8c0-.6.5-1.1 1.1-1.1s1.1.5 1.1 1.1c0 .6-.5 1.1-1.1 1.1s-1.1-.5-1.1-1.1m3.5 6.3c-1.5 0-2.7-.6-2.7-1.4h5.3c0 .7-1.2 1.4-2.6 1.4m2.6-5.2c-.6 0-1.1-.5-1.1-1.1 0-.6.5-1.1 1.1-1.1.6 0 1.1.5 1.1 1.1 0 .6-.5 1.1-1.1 1.1m4 10.8c0 1.1-2 2.1-4.5 2.1s-3.9-1.1-4.4-2.1c-.5-1 0 0 0 0-.7-.9-1.4-1.5-2.2-2-.4.8-1.7 1.1-3 .8-1.4-.4-2.4-1.5-2.1-2.5 0 0 0-.1.1-.1-.8-.2-1.8-.5-2.9-.7-.2 0-.3-.2-.2-.4 0-.2.2-.3.4-.2 2.3.6 1.7.4 3 .9.5-.6 1.6-.8 2.7-.5 1.4.4 2.3 1.4 2.1 2.4 1.1.6 1.9 1.2 2.4 1.9.2.1 1.8 1.1 4.1 1.1 2.5 0 4.5-.7 4.5-.7m-5.8.3c-.1 0-.1 0 0 0-.1.1-.1 0-.1 0 .1-.1.2-.2-.1-.3.1.1.3 0 .4.1.1 0 .1.2.3.1-.2 0-.4.1-.5.1m1.2-.3c-.3-.1-.3-.4-.1-.7h-.2c0 .1 0 .2-.1.4 0 .1.2.1.1.2-.1.2-.3.3-.5.3.1 0 .1.1.2.2h.1c.1-.1.4-.3.5-.4m.7.2c.1-.1.1-.2.1-.2-.1 0-.2-.1-.3-.2l-.1.1c.2 0 .4.2.3.3 0 .1.1.2.1.2-.1 0-.1-.1-.1-.2m-2.4-.6c-.5-.2.3-.5.4-.6.1-.1.4 0 .4.1 0 .2-.3.3-.5.4.3.1.2-.1.4-.1.1 0 .3-.1.4-.2.1 0 0-.1.1-.2.2-.2 1.1-.2 1 .2h.3c-.1-.4.5-.3.7-.3.4 0 .2.4 0 .3v.1c.3-.1.5-.2.7-.1.1.1.2.3.1.4h.1c-.2-.4.5-.3.6 0 .5-.3.4.5.4.4 0 0 0 .1.1 0 .8-.2 1.3-.3 1.3-.3-.6-.5-2-1.4-4.4-1.4-1.9 0-3.3.5-4.1.9.1 0 .4.2.9.4.2-.1.5-.1.6-.1.1-.8 1 .3.4.2.1.1 0 .2 0 .3h.1c.1-.1.2-.1.3-.2-.6.2-.4-.1-.3-.2m4.3.2v.3h.2s-.1 0-.1-.1-.1-.1-.1-.2m-.8.3c-.3-.1.1-.4.1-.4s-.4.2-.6.2c.2 0 .4.1.3.3.2-.1.3.1.3.2.1-.2.1-.2-.1-.3"/></svg>