<svg xmlns="http://www.w3.org/2000/svg" viewBox="0 0 22.5 22.5"><path fill="#1CABE2" d="M15.5 1.5c-.7-.6-1.2-.4-1.9.8-.5.8-1.2.9-1.7.9L12 3c.5-.3.9-.8.9-1.4 0-.9-.7-1.6-1.6-1.6S9.6.7 9.6 1.6c0 .6.4 1.2.9 1.4v.2c-.5 0-1.2-.1-1.7-.9C8.2 1 7.7.9 7 1.5c-.8.6-3.6 3.9-7 3.6 0 0 .7 1.5 2.5 1.2 0 0 1 1 2.6.3 0 0 .8.8 2.2.1 0 0 1 .8 2 .1 0 0 .6.4 1.3.3V11h-.2s-1.2-.2-2.4-.6c-1.1-.4-2.4-.8-2.6-1.1h.1c.1-.1.3-.2.5-.2.4-.1 1-.1 1.6-.2H9s.7.1.9-.6c0-.5-.4-.5-.7-.5-.5-.1-.2 0-.9 0-1.1 0-4.4-.3-4.8 1.5v.1c.1 1.5 3.2 2.1 5.5 2.6-.8.5-1.2 1.2-1.3 2.1-.1.9.7 1.8 2.4 2.8-1.3.9-2.2 1.8-2.1 2.9.1.9.9 2 2.4 2.7 0 0-1-1.6-1.1-2.5-.1-.5.2-1.3 1.5-2.2V21c0 .3.2.5.5.5s.5-.2.5-.5v-3.1c1.2.9 1.4 1.6 1.4 2.1-.1.9-1.1 2.5-1.1 2.5 1.5-.7 2.3-1.9 2.4-2.7.1-1.1-.8-1.9-2.1-2.9 1.7-1 2.5-1.9 2.4-2.8-.2-.9-.6-1.6-1.3-2.1 2.3-.4 5.4-1.1 5.5-2.6v-.1c-.4-1.7-3.7-1.5-4.8-1.5h-.9c-.3.1-.7.1-.7.5.1.7.8.6.8.7 0 0 .2-.1 1.4 0 .6 0 1.2.1 1.6.2.2 0 .4.1.5.2h.1c-.2.3-1.5.8-2.6 1.1l-2.4.6h-.1V7.2c.7.1 1.3-.3 1.3-.3 1.1.7 2-.1 2-.1 1.3.7 2.2-.1 2.2-.1 1.6.6 2.6-.4 2.6-.4 1.9.3 2.5-1.2 2.5-1.2-3.4.3-6.2-3-7-3.6M9.1 14.4c0-.3-.1-1.1 1.5-1.7v3.2c-.3-.2-.6-.4-1-.6-.3-.3-.5-.7-.5-.9m3.5.8c-.3.2-.6.4-.8.5v-3.1c1.5.6 1.4 1.4 1.4 1.7 0 .3-.2.7-.6.9"/></svg>