<svg viewBox="0 0 21 32" xmlns="http://www.w3.org/2000/svg"><g fill="none" fill-rule="evenodd"><path fill="#FFF" d="M-853-895H171V182H-853z"/><path d="M2.472 27.077c5.286 1.656 10.634 1.456 16.032 0L19.738 32h-18.5l1.234-4.923zm8.016.488c-5.79 0-10.483-1.48-10.483-7.257 0-5.778-.573-.4 10.746-.4 11.32 0 10.22-5.378 10.22.4 0 5.777-4.693 7.257-10.483 7.257zM.005 2.462H20.97v12.307c-6.662-2.531-13.614-3.033-20.966 0V2.462zM1.238 0h18.5l1.233 1.846H.005L1.238 0zm0 3.692v.739h2.467v-.739H1.238zm9.25 15.413c-5.45 0-9.867-1.69-9.867-3.01 0-1.318 4.418-2.388 9.867-2.388 5.449 0 9.866 1.07 9.866 2.389 0 1.319-4.417 3.009-9.866 3.009z" fill="#1cabe2" fill-rule="nonzero"/></g></svg>