<svg xmlns="http://www.w3.org/2000/svg" viewBox="0 0 13.1 31"><path fill-rule="evenodd" clip-rule="evenodd" fill="#1CABE2" d="M13.1 21.7l-2.6-6.8c1.3-.1 1.9-.6 1.9-1.3 0-.4-.2-.9-.4-1.4.6-.6 1-1.2 1-2.3 0-.4-.5-1.4-1.4-2.2-1.2-1.2-3-2-4.7-2-1.1 0-1.9.3-2.4.5-.5-.1-1-.2-1.4-.2C.7 6 0 7.9 0 9.9c0 .9.3 1.7.8 2.3-.1.4-.2.9-.2 1.3 0 .9.3 1.4.8 1.4s1.4-.4 2.3-1.1l.9.3c-.8 2.4-2 5.5-3.1 7.7l2.3.1.5 9.1h1.6c.2-2.5.5-6.6.8-8.2.1-.7.3-1.1.5-1.1.3 0 .4.4.6 1.1.3 1.6.6 5.5.7 8.1h1.6l.4-9.2h2.6zm-3-10.5c-.5.6-1.6 1.3-2.6 1.8l.9 1.2c-.5 0-1-.1-1.3-.2-.4-1.3-1.3-3.4-1.3-4.8 0-.6.1-1.1.2-1.6 1.3.9 3 2.3 4.1 3.6m1.3 2.3c0 .5-.6.7-1.6.7H8.7c1-.5 1.8-.9 2.5-1.3.1.2.2.4.2.6M5.3 7.4c0 .2-.1.5-.2.7-.2-.4-.7-.7-1.2-.7-.8 0-1.5.7-1.5 1.6 0 .6.4 1.1.8 1.4-.6.4-1.2.9-1.7 1.5-.6-.6-.8-1.1-.8-2 0-1.8.6-3.2 2.4-3.2.8 0 1.4.3 2.2.7m1 6.5c-.6-.2-1.3-.3-1.9-.5.2-.2.4-.3.6-.4l-.9-1.4-1.4 1c-.2-.1-.4-.2-.6-.4.9-1.2 1.7-1.6 3.2-1.8.3 1.1.8 2.8 1 3.5"/><path fill-rule="evenodd" clip-rule="evenodd" fill="#09F" d="M9.5 2.5C9.5 1.1 8.3 0 7 0S4.5 1.1 4.5 2.5 5.6 5 7 5s2.5-1.1 2.5-2.5"/></svg>