<svg xmlns="http://www.w3.org/2000/svg" viewBox="0 0 14.3 20.4"><path fill="#1CABE2" d="M10.1 12.9l2 2c.6.6.5 1.7-.1 2.3L9.2 20c-1 1-2.5-.4-1.4-1.4l1.7-1.7-1.7-1.7 2.3-2.3zm-6.1 0s-1.9 1.9-1.9 2c-.6.6-.5 1.7.1 2.3L4.9 20c1 1 2.4-.4 1.4-1.4l-1.7-1.7 1.7-1.7L4 12.9m3.1-7.3c1.6 0 2.8-1.3 2.8-2.8C10 1.3 8.7 0 7.1 0 5.6 0 4.3 1.3 4.3 2.8c0 1.6 1.3 2.8 2.8 2.8m3.1 6.2V9.9l2.3 2.2c.2.2.4.3.7.3.3 0 .5-.1.7-.3.4-.4.4-1 0-1.4 0 0-2.7-2.9-3.1-3.3-.7-.6-1.8-1-3.5-1h-.4c-1.7 0-2.8.4-3.5 1C3 7.6.3 10.6.3 10.6c-.4.4-.4 1 0 1.4.2.2.5.3.7.3.2 0 .5-.1.7-.3L4 9.8v1.9h6.2z"/></svg>