<svg version="1.1" id="Layer_1" xmlns="http://www.w3.org/2000/svg" x="0" y="0" width="398.479" height="602.48" viewBox="110.16 18.26 398.479 602.48" xml:space="preserve"><g fill="#646466"><path d="M308.72 18.26c-109.479 0-198.56 89.76-198.56 199.24v388.28c0 8.16 6.8 14.96 14.96 14.96h368.56c8.16 0 14.96-6.8 14.96-14.96V217.5c-.68-109.48-89.76-199.24-199.92-199.24zm169.32 572.56H139.4V217.5c0-93.16 76.16-169.32 169.32-169.32s169.32 76.16 169.32 169.32v373.32z"/><path d="M388.96 305.22h-159.8c-8.16 0-14.96 6.8-14.96 14.96s6.8 14.96 14.96 14.96h159.8c8.16 0 14.96-6.8 14.96-14.96s-6.8-14.96-14.96-14.96zm0 73.44h-159.8c-8.16 0-14.96 6.8-14.96 14.96s6.8 14.96 14.96 14.96h159.8c8.16 0 14.96-6.8 14.96-14.96s-6.8-14.96-14.96-14.96zm-27.88 73.44H257.04c-8.16 0-14.96 6.801-14.96 14.96 0 8.16 6.8 14.96 14.96 14.96h104.04c8.16 0 14.96-6.8 14.96-14.96s-6.8-14.96-14.96-14.96z"/></g></svg>