<svg xmlns="http://www.w3.org/2000/svg" viewBox="0 0 100 100"><path d="M50.003 5C25.1 5 5 25.224 5 49.999 5 74.774 25.1 95 50.003 95 74.905 95 95 74.774 95 49.999S74.905 5 50.003 5zm4.642 3.258a41.5 41.5 0 0 1 7.03 1.407L54.73 20.143l-4.48-2.423-5.918 5.93-.896 4.315-6.993 3.772.269 4.226-4.57-1.079-1.434 5.66 4.57.54L39.94 35.6l2.958-.178 3.317 6.65 2.33-3.865-4.033-3.594 1.345-.45 8.962 3.683 5.289-6.2 3.047 3.684-6.453 5.301.807 1.888 4.124-.447-.63 3.055 10.041 14.017 7.618-8.176-8.874-6.38 1.436-1.349H81.62l6.725 10.156 1.88-1.26-1.703-15.904.799-.467a42.19 42.19 0 0 1 2.454 14.234c0 23.273-18.75 41.999-41.772 41.999-14.942 0-28.085-7.887-35.472-19.786.347-1.578.668-3 .668-3l-2.867-4.673-2.973-4.768a42.4 42.4 0 0 1-1.134-9.772c0-8.844 2.707-17.032 7.329-23.784l4.037-.59 6.456-7.547 1.001-3.18a41.545 41.545 0 0 1 9.803-4.772l1.386 1.39-10.668 7.19.18 1.437L37.073 17l5.738-4.223 9.23-.99 4.213-2.157-1.608-1.37zM37.25 18.798l-2.598 1.615 2.778 2.157.987-1.078-1.167-2.694zm1.614 5.21l-4.84 4.854 2.6 1.348 3.227-1.168-.987-5.034zm4.572 17.614l-11.025.45-9.234 9.884s-.536 6.38-.716 7.998l6.902 8.63 13.624 1.167-.538 3.325 3.677 4.404-.091 5.66 5.468 6.472 7.082-.45 9.95-9.436-1.165-5.752 6.453-8.449 1.971-7.547-5.019 3.055-4.303-3.325-6.991-12.402-9.77 1.887-6.275-5.57zM74.9 75.503l-4.304 3.773-1.791 4.492 2.598-.898 3.497-7.367z" fill="#fff" fill-rule="evenodd"/></svg>