<svg version="1.1" id="Layer_1" xmlns="http://www.w3.org/2000/svg" x="0" y="0" width="317.475" height="521.634" viewBox="147.263 58.444 317.475 521.634" xml:space="preserve"><g fill="#00AEEF"><path d="M178.819 256.866c-.957-.478-1.435-.957-2.391-.957h-.957c-.478 0-1.434-.478-1.912-.478h-3.826c-.478 0-.956 0-1.435.478-.478 0-.478 0-.956.479-.478 0-.956.478-1.435.478-.478 0-.478.478-.956.478-.478.478-.956.478-1.435.956l-.478.479c-.478.478-1.434.956-1.913 1.912-9.084 10.041-13.865 23.428-13.865 36.816v122.4c0 88.453 71.24 160.172 158.737 160.172s158.737-71.719 158.737-160.172V297.028c0-13.388-4.781-26.775-13.865-36.816l-1.913-1.913s-.478-.478-.956-.478c-.478-.478-.956-.478-1.435-.956-.478 0-.478-.478-.956-.478s-.956-.479-1.435-.479c-.478 0-.478 0-.956-.478-.478 0-.956 0-1.435-.478h-3.824c-.479 0-1.435 0-1.913.478h-.956c-.478 0-1.435.478-1.912.957v-27.253c0-64.547-46.856-112.359-113.316-118.575 1.913-12.91 12.91-23.428 26.775-23.428 8.128 0 14.344-6.216 14.344-14.344s-6.216-14.344-14.344-14.344c-29.166 0-53.072 22.95-55.462 51.637-66.938 5.738-113.794 54.028-113.794 118.575 0 8.128 6.216 14.344 14.344 14.344s14.344-6.216 14.344-14.344c0-52.594 41.597-90.844 99.45-90.844s99.45 38.25 99.45 90.844v43.031L194.597 387.394c-4.781 2.391-7.172 7.172-7.65 12.432 0 2.391.478 4.781 1.913 7.172 3.825 7.172 12.431 9.563 19.603 5.737l178.819-99.928c.956 2.391 1.435 5.259 1.435 8.128v98.972c0 72.675-10.519 131.484-82.237 131.484-71.719 0-130.528-58.81-130.528-131.484V297.028c0-1.435 0-2.869.478-4.781 0-.479 0-.957.478-1.435 0-.956.478-1.435.478-1.913l78.413 43.031c7.172 3.825 15.778 1.435 19.603-5.737 3.825-7.172 1.435-15.778-5.737-19.603l-90.846-49.724z"/><ellipse cx="270.141" cy="248.26" rx="15.778" ry="15.778"/><ellipse cx="349.51" cy="248.26" rx="15.778" ry="15.778"/></g></svg>