<svg version="1.1" id="Layer_1" xmlns="http://www.w3.org/2000/svg" x="0" y="0" width="411.207" height="633.612" viewBox="100.365 0 411.207 633.612" xml:space="preserve"><g fill="#00AEEF"><circle cx="218.955" cy="76.958" r="76.211"/><circle cx="405" cy="76.211" r="76.211"/><path d="M437.128 187.54h-52.302c-30.634 0-17.185 17.932-42.589 17.932h-72.475c-26.151 0-11.955-17.932-42.588-17.932h-53.049c-107.592 0-65.751 293.638-65.751 379.562 0 78.453 86.672 65.751 139.721 65.751v-327.26c0-10.46 8.219-19.426 18.679-19.426h77.706c10.46 0 19.426 8.966 19.426 19.426v327.26c52.303 0 139.721 12.702 139.721-65.751-.001-85.924 41.841-379.562-66.499-379.562z"/></g></svg>